# xmcd
#
# Track frame offsets: 
#        182
#        13765
#        26922
#        41145
#        51232
#        65117
#        78462
#        93287
#        106887
#        122150
#        134332
#        145377
#        158655
#        170607
#        183842
#        198280
#        209712
#        220130
#        230912
#        241530
#        253612
#        266415
#        279887
#        291827
#        303967
#
# Disc length: 4190 seconds
#
# Revision: 11
# Processed by: cddbd v1.5.2PL0 Copyright (c) Steve Scherf et al.
# Submitted via: ExactAudioCopyFreeDBPlugin 1.0
#
DISCID=73105c19
DTITLE=Various Artist - The Doo Wop Boxes I, II, and III [Rhino box set
DTITLE=s]
DYEAR=1993
DGENRE=Rhythm and Blues
TTITLE0=The Orioles - It's Too Soon to Know
TTITLE1=The Ravens - Count Every Star
TTITLE2=The Five Keys - The Glory of Love
TTITLE3=The Crows - Gee
TTITLE4=The Orioles - Crying in the Chapel
TTITLE5=Clyde McPhatter and The Drifters - Money Honey
TTITLE6=The Flamingos - Golden Teardrops
TTITLE7=The Harp-Tones - A Sunday Kind of Love
TTITLE8=The Velvets - I
TTITLE9=The Spaniels - Goodnite Sweetheart, Goodnite
TTITLE10=The Chords - Sh-Boom
TTITLE11=The Cadillacs - Gloria
TTITLE12=The Jewels - Hearts of Stone
TTITLE13=The Penguins - Earth Angel
TTITLE14=The Moonglows - Sincerely
TTITLE15=The Rainbows - Mary Lee
TTITLE16=The Five Keys - Close Your Eyes
TTITLE17=The Wrens - Come Back My Love
TTITLE18=The Nutmegs - Story Untold
TTITLE19=The Platters - Only You
TTITLE20=The Jacks - Why Don't You Write Me?
TTITLE21=The Turbans - When You Dance
TTITLE22=The El Dorados - At My Front Door
TTITLE23=The Platters - The Great Pretender
TTITLE24=The Valentines - Lily Maebelle
EXTD=YEAR: 1955
EXTT0=
EXTT1=
EXTT2=
EXTT3=
EXTT4=
EXTT5=
EXTT6=
EXTT7=
EXTT8=
EXTT9=
EXTT10=
EXTT11=
EXTT12=
EXTT13=
EXTT14=
EXTT15=
EXTT16=
EXTT17=
EXTT18=
EXTT19=
EXTT20=
EXTT21=
EXTT22=
EXTT23=
EXTT24=
PLAYORDER=
